<svg data-v-423bf9ae="" xmlns="http://www.w3.org/2000/svg" viewBox="0 0 721 91" class="iconLeft"><!----><!----><!----><g data-v-423bf9ae="" id="8be5a433-315b-47e1-ac87-1d14c455ce26" fill="#000000" transform="matrix(4.743082789406028,0,0,4.743082789406028,102.47201421932385,1.0079043529915097)"><path d="M3.04 12.74L3.04 12.74Q2.43 12.74 1.93 12.52L1.93 12.52L1.93 12.52Q1.43 12.30 1.08 11.93L1.08 11.93L1.08 11.93Q0.73 11.55 0.57 11.11L0.57 11.11L1.32 10.70L1.32 10.70Q1.51 11.31 1.96 11.68L1.96 11.68L1.96 11.68Q2.41 12.04 3.08 12.04L3.08 12.04L3.08 12.04Q3.69 12.04 4.08 11.74L4.08 11.74L4.08 11.74Q4.48 11.44 4.48 10.84L4.48 10.84L4.48 10.84Q4.48 10.38 4.24 10.10L4.24 10.10L4.24 10.10Q4.01 9.81 3.66 9.65L3.66 9.65L3.66 9.65Q3.32 9.49 2.73 9.29L2.73 9.29L2.73 9.29Q2.09 9.08 1.71 8.89L1.71 8.89L1.71 8.89Q1.33 8.71 1.06 8.36L1.06 8.36L1.06 8.36Q0.80 8.02 0.80 7.46L0.80 7.46L0.80 7.46Q0.80 6.90 1.08 6.48L1.08 6.48L1.08 6.48Q1.36 6.06 1.83 5.85L1.83 5.85L1.83 5.85Q2.30 5.63 2.87 5.63L2.87 5.63L2.87 5.63Q3.61 5.63 4.17 5.99L4.17 5.99L4.17 5.99Q4.72 6.35 5.02 6.97L5.02 6.97L4.41 7.33L4.41 7.33Q4.18 6.84 3.78 6.59L3.78 6.59L3.78 6.59Q3.38 6.33 2.84 6.33L2.84 6.33L2.84 6.33Q2.26 6.33 1.91 6.62L1.91 6.62L1.91 6.62Q1.57 6.90 1.57 7.37L1.57 7.37L1.57 7.37Q1.57 7.73 1.78 7.97L1.78 7.97L1.78 7.97Q1.99 8.20 2.31 8.34L2.31 8.34L2.31 8.34Q2.63 8.48 3.17 8.65L3.17 8.65L3.17 8.65Q3.86 8.87 4.28 9.07L4.28 9.07L4.28 9.07Q4.70 9.28 5.00 9.67L5.00 9.67L5.00 9.67Q5.30 10.06 5.30 10.70L5.30 10.70L5.30 10.70Q5.30 11.35 4.99 11.82L4.99 11.82L4.99 11.82Q4.68 12.28 4.16 12.51L4.16 12.51L4.16 12.51Q3.64 12.74 3.04 12.74L3.04 12.74ZM7.05 12.61L7.05 5.78L7.92 5.78L7.92 6.92L7.92 6.92Q8.05 6.58 8.32 6.29L8.32 6.29L8.32 6.29Q8.60 5.99 8.99 5.81L8.99 5.81L8.99 5.81Q9.37 5.63 9.82 5.63L9.82 5.63L9.82 5.63Q10.59 5.63 11.15 6.01L11.15 6.01L11.15 6.01Q11.72 6.38 11.94 7.12L11.94 7.12L11.94 7.12Q12.25 6.40 12.78 6.02L12.78 6.02L12.78 6.02Q13.30 5.63 14.03 5.63L14.03 5.63L14.03 5.63Q14.83 5.63 15.36 6.01L15.36 6.01L15.36 6.01Q15.88 6.38 16.12 7.01L16.12 7.01L16.12 7.01Q16.37 7.64 16.37 8.45L16.37 8.45L16.37 12.61L15.50 12.61L15.50 8.52L15.50 8.52Q15.50 7.63 15.15 6.98L15.15 6.98L15.15 6.98Q14.79 6.33 13.95 6.33L13.95 6.33L13.95 6.33Q13.38 6.33 12.97 6.69L12.97 6.69L12.97 6.69Q12.56 7.05 12.35 7.63L12.35 7.63L12.35 7.63Q12.14 8.20 12.14 8.81L12.14 8.81L12.14 12.61L11.27 12.61L11.27 8.49L11.27 8.49Q11.27 7.59 10.93 6.96L10.93 6.96L10.93 6.96Q10.59 6.33 9.74 6.33L9.74 6.33L9.74 6.33Q9.17 6.33 8.76 6.73L8.76 6.73L8.76 6.73Q8.35 7.14 8.13 7.77L8.13 7.77L8.13 7.77Q7.92 8.41 7.92 9.09L7.92 9.09L7.92 12.61L7.05 12.61ZM20.12 12.74L20.12 12.74Q19.49 12.74 19.00 12.50L19.00 12.50L19.00 12.50Q18.51 12.26 18.24 11.82L18.24 11.82L18.24 11.82Q17.96 11.37 17.96 10.76L17.96 10.76L17.96 10.76Q17.96 8.74 21.04 8.74L21.04 8.74L22.56 8.74L22.56 8.74Q22.56 7.62 22.15 7L22.15 7L22.15 7Q21.74 6.38 20.79 6.38L20.79 6.38L20.79 6.38Q19.60 6.38 18.83 7.42L18.83 7.42L18.22 6.94L18.22 6.94Q19.15 5.63 20.72 5.63L20.72 5.63L20.72 5.63Q21.56 5.63 22.15 5.97L22.15 5.97L22.15 5.97Q22.73 6.32 23.03 6.94L23.03 6.94L23.03 6.94Q23.32 7.57 23.32 8.41L23.32 8.41L23.32 12.61L22.59 12.61L22.59 11.20L22.59 11.20Q22.24 11.97 21.58 12.36L21.58 12.36L21.58 12.36Q20.92 12.74 20.12 12.74L20.12 12.74ZM20.21 12.02L20.21 12.02Q20.92 12.02 21.46 11.62L21.46 11.62L21.46 11.62Q21.99 11.23 22.27 10.63L22.27 10.63L22.27 10.63Q22.56 10.02 22.56 9.41L22.56 9.41L21.14 9.41L21.14 9.41Q19.97 9.41 19.42 9.72L19.42 9.72L19.42 9.72Q18.86 10.03 18.86 10.77L18.86 10.77L18.86 10.77Q18.86 11.42 19.23 11.72L19.23 11.72L19.23 11.72Q19.61 12.02 20.21 12.02L20.21 12.02ZM25.54 12.61L25.54 5.78L26.41 5.78L26.41 7.01L26.41 7.01Q26.68 6.38 27.24 6.01L27.24 6.01L27.24 6.01Q27.80 5.63 28.46 5.63L28.46 5.63L28.46 5.63Q29.06 5.63 29.53 5.95L29.53 5.95L29.18 6.71L29.18 6.71Q28.88 6.45 28.33 6.45L28.33 6.45L28.33 6.45Q27.39 6.45 26.89 7.14L26.89 7.14L26.89 7.14Q26.39 7.83 26.39 9.06L26.39 9.06L26.39 12.61L25.54 12.61ZM32.71 12.74L32.71 12.74Q31.88 12.74 31.53 12.24L31.53 12.24L31.53 12.24Q31.19 11.74 31.19 10.81L31.19 10.81L31.19 6.47L30.09 6.47L30.09 5.78L31.19 5.78L31.19 4.27L32.04 3.38L32.04 5.78L33.78 5.78L33.78 6.47L32.04 6.47L32.04 10.90L32.04 10.90Q32.04 11.46 32.29 11.76L32.29 11.76L32.29 11.76Q32.53 12.06 32.94 12.06L32.94 12.06L32.94 12.06Q33.22 12.06 33.55 11.91L33.55 11.91L33.55 12.62L33.55 12.62Q33.44 12.67 33.22 12.70L33.22 12.70L33.22 12.70Q32.99 12.74 32.71 12.74L32.71 12.74ZM39.20 15.60L39.20 5.78L40.06 5.78L40.06 6.77L40.06 6.77Q40.40 6.24 40.94 5.94L40.94 5.94L40.94 5.94Q41.49 5.63 42.18 5.63L42.18 5.63L42.18 5.63Q43.06 5.63 43.68 6.10L43.68 6.10L43.68 6.10Q44.30 6.57 44.62 7.38L44.62 7.38L44.62 7.38Q44.93 8.18 44.93 9.19L44.93 9.19L44.93 9.19Q44.93 10.19 44.62 10.99L44.62 10.99L44.62 10.99Q44.30 11.80 43.69 12.27L43.69 12.27L43.69 12.27Q43.07 12.74 42.18 12.74L42.18 12.74L42.18 12.74Q41.50 12.74 40.96 12.45L40.96 12.45L40.96 12.45Q40.41 12.15 40.06 11.61L40.06 11.61L40.06 15.60L39.20 15.60ZM42.02 12.04L42.02 12.04Q42.70 12.04 43.17 11.65L43.17 11.65L43.17 11.65Q43.63 11.25 43.85 10.60L43.85 10.60L43.85 10.60Q44.08 9.95 44.08 9.19L44.08 9.19L44.08 9.19Q44.08 8.43 43.85 7.78L43.85 7.78L43.85 7.78Q43.63 7.13 43.17 6.73L43.17 6.73L43.17 6.73Q42.70 6.33 42.02 6.33L42.02 6.33L42.02 6.33Q41.33 6.33 40.87 6.73L40.87 6.73L40.87 6.73Q40.41 7.13 40.20 7.78L40.20 7.78L40.20 7.78Q39.98 8.43 39.98 9.19L39.98 9.19L39.98 9.19Q39.98 9.95 40.20 10.60L40.20 10.60L40.20 10.60Q40.41 11.25 40.87 11.65L40.87 11.65L40.87 11.65Q41.33 12.04 42.02 12.04L42.02 12.04ZM47.84 12.74L47.84 12.74Q47.39 12.74 47.16 12.57L47.16 12.57L47.16 12.57Q46.94 12.39 46.88 12.13L46.88 12.13L46.88 12.13Q46.82 11.87 46.82 11.46L46.82 11.46L46.82 11.22L46.82 2.95L47.69 2.95L47.69 11.64L47.69 11.64Q47.69 11.74 47.69 11.76L47.69 11.76L47.69 11.76Q47.69 11.78 47.75 11.89L47.75 11.89L47.75 11.89Q47.82 12.00 47.97 12.00L47.97 12.00L47.97 12.00Q48.34 12.00 48.68 11.94L48.68 11.94L48.68 12.61L48.68 12.61Q48.54 12.66 48.31 12.70L48.31 12.70L48.31 12.70Q48.08 12.74 47.84 12.74L47.84 12.74ZM51.80 12.74L51.80 12.74Q51.17 12.74 50.69 12.50L50.69 12.50L50.69 12.50Q50.20 12.26 49.92 11.82L49.92 11.82L49.92 11.82Q49.65 11.37 49.65 10.76L49.65 10.76L49.65 10.76Q49.65 8.74 52.73 8.74L52.73 8.74L54.24 8.74L54.24 8.74Q54.24 7.62 53.83 7L53.83 7L53.83 7Q53.42 6.38 52.48 6.38L52.48 6.38L52.48 6.38Q51.28 6.38 50.52 7.42L50.52 7.42L49.90 6.94L49.90 6.94Q50.84 5.63 52.40 5.63L52.40 5.63L52.40 5.63Q53.25 5.63 53.83 5.97L53.83 5.97L53.83 5.97Q54.41 6.32 54.71 6.94L54.71 6.94L54.71 6.94Q55.01 7.57 55.01 8.41L55.01 8.41L55.01 12.61L54.27 12.61L54.27 11.20L54.27 11.20Q53.93 11.97 53.27 12.36L53.27 12.36L53.27 12.36Q52.60 12.74 51.80 12.74L51.80 12.74ZM51.89 12.02L51.89 12.02Q52.61 12.02 53.14 11.62L53.14 11.62L53.14 11.62Q53.68 11.23 53.96 10.63L53.96 10.63L53.96 10.63Q54.24 10.02 54.24 9.41L54.24 9.41L52.83 9.41L52.83 9.41Q51.66 9.41 51.10 9.72L51.10 9.72L51.10 9.72Q50.54 10.03 50.54 10.77L50.54 10.77L50.54 10.77Q50.54 11.42 50.92 11.72L50.92 11.72L50.92 11.72Q51.29 12.02 51.89 12.02L51.89 12.02ZM57.22 12.61L57.22 5.78L58.08 5.78L58.08 7.06L58.08 7.06Q58.42 6.41 58.99 6.04L58.99 6.04L58.99 6.04Q59.55 5.66 60.33 5.66L60.33 5.66L60.33 5.66Q61.09 5.66 61.60 6.03L61.60 6.03L61.60 6.03Q62.10 6.40 62.33 7.03L62.33 7.03L62.33 7.03Q62.57 7.66 62.57 8.45L62.57 8.45L62.57 12.61L61.71 12.61L61.71 8.52L61.71 8.52Q61.71 7.64 61.35 7.00L61.35 7.00L61.35 7.00Q60.98 6.36 60.11 6.36L60.11 6.36L60.11 6.36Q59.54 6.36 59.08 6.68L59.08 6.68L59.08 6.68Q58.62 6.99 58.35 7.61L58.35 7.61L58.35 7.61Q58.08 8.22 58.08 9.11L58.08 9.11L58.08 12.61L57.22 12.61ZM66.56 12.74L66.56 12.74Q65.73 12.74 65.38 12.24L65.38 12.24L65.38 12.24Q65.04 11.74 65.04 10.81L65.04 10.81L65.04 6.47L63.94 6.47L63.94 5.78L65.04 5.78L65.04 4.27L65.89 3.38L65.89 5.78L67.63 5.78L67.63 6.47L65.89 6.47L65.89 10.90L65.89 10.90Q65.89 11.46 66.14 11.76L66.14 11.76L66.14 11.76Q66.38 12.06 66.79 12.06L66.79 12.06L66.79 12.06Q67.07 12.06 67.40 11.91L67.40 11.91L67.40 12.62L67.40 12.62Q67.29 12.67 67.07 12.70L67.07 12.70L67.07 12.70Q66.84 12.74 66.56 12.74L66.56 12.74ZM75.42 12.74L75.42 12.74Q74.50 12.74 73.85 12.26L73.85 12.26L73.85 12.26Q73.20 11.77 72.87 10.96L72.87 10.96L72.87 10.96Q72.54 10.16 72.54 9.20L72.54 9.20L72.54 9.20Q72.54 8.25 72.87 7.44L72.87 7.44L72.87 7.44Q73.20 6.62 73.85 6.13L73.85 6.13L73.85 6.13Q74.50 5.63 75.41 5.63L75.41 5.63L75.41 5.63Q76.29 5.63 76.96 6.10L76.96 6.10L76.96 6.10Q77.63 6.58 78.00 7.40L78.00 7.40L77.18 7.76L77.18 7.76Q77.03 7.11 76.54 6.72L76.54 6.72L76.54 6.72Q76.05 6.33 75.41 6.33L75.41 6.33L75.41 6.33Q74.71 6.33 74.26 6.76L74.26 6.76L74.26 6.76Q73.81 7.18 73.62 7.84L73.62 7.84L73.62 7.84Q73.42 8.50 73.42 9.20L73.42 9.20L73.42 9.20Q73.42 9.92 73.62 10.56L73.62 10.56L73.62 10.56Q73.81 11.21 74.26 11.63L74.26 11.63L74.26 11.63Q74.70 12.04 75.41 12.04L75.41 12.04L75.41 12.04Q76.06 12.04 76.55 11.66L76.55 11.66L76.55 11.66Q77.03 11.28 77.18 10.64L77.18 10.64L77.92 10.98L77.92 10.98Q77.62 11.81 76.97 12.28L76.97 12.28L76.97 12.28Q76.32 12.74 75.42 12.74L75.42 12.74ZM82.26 12.74L82.26 12.74Q81.34 12.74 80.62 12.26L80.62 12.26L80.62 12.26Q79.91 11.78 79.51 10.96L79.51 10.96L79.51 10.96Q79.11 10.14 79.11 9.17L79.11 9.17L79.11 9.17Q79.11 8.20 79.51 7.39L79.51 7.39L79.51 7.39Q79.91 6.58 80.62 6.11L80.62 6.11L80.62 6.11Q81.34 5.63 82.26 5.63L82.26 5.63L82.26 5.63Q83.17 5.63 83.90 6.11L83.90 6.11L83.90 6.11Q84.63 6.58 85.04 7.40L85.04 7.40L85.04 7.40Q85.45 8.21 85.45 9.17L85.45 9.17L85.45 9.17Q85.45 10.14 85.04 10.96L85.04 10.96L85.04 10.96Q84.63 11.78 83.90 12.26L83.90 12.26L83.90 12.26Q83.17 12.74 82.26 12.74L82.26 12.74ZM82.27 12.04L82.27 12.04Q83.03 12.04 83.56 11.64L83.56 11.64L83.56 11.64Q84.08 11.23 84.34 10.58L84.34 10.58L84.34 10.58Q84.59 9.92 84.59 9.17L84.59 9.17L84.59 9.17Q84.59 8.43 84.34 7.78L84.34 7.78L84.34 7.78Q84.08 7.13 83.56 6.73L83.56 6.73L83.56 6.73Q83.04 6.33 82.28 6.33L82.28 6.33L82.28 6.33Q81.53 6.33 81.01 6.73L81.01 6.73L81.01 6.73Q80.48 7.13 80.22 7.78L80.22 7.78L80.22 7.78Q79.96 8.43 79.96 9.17L79.96 9.17L79.96 9.17Q79.96 9.93 80.22 10.58L80.22 10.58L80.22 10.58Q80.48 11.24 81.00 11.64L81.00 11.64L81.00 11.64Q81.53 12.04 82.27 12.04L82.27 12.04ZM87.28 12.61L87.28 5.78L88.14 5.78L88.14 7.06L88.14 7.06Q88.48 6.41 89.04 6.04L89.04 6.04L89.04 6.04Q89.61 5.66 90.39 5.66L90.39 5.66L90.39 5.66Q91.15 5.66 91.65 6.03L91.65 6.03L91.65 6.03Q92.16 6.40 92.39 7.03L92.39 7.03L92.39 7.03Q92.63 7.66 92.63 8.45L92.63 8.45L92.63 12.61L91.77 12.61L91.77 8.52L91.77 8.52Q91.77 7.64 91.40 7.00L91.40 7.00L91.40 7.00Q91.03 6.36 90.17 6.36L90.17 6.36L90.17 6.36Q89.60 6.36 89.14 6.68L89.14 6.68L89.14 6.68Q88.68 6.99 88.41 7.61L88.41 7.61L88.41 7.61Q88.14 8.22 88.14 9.11L88.14 9.11L88.14 12.61L87.28 12.61ZM96.62 12.74L96.62 12.74Q95.79 12.74 95.44 12.24L95.44 12.24L95.44 12.24Q95.09 11.74 95.09 10.81L95.09 10.81L95.09 6.47L94.00 6.47L94.00 5.78L95.09 5.78L95.09 4.27L95.95 3.38L95.95 5.78L97.69 5.78L97.69 6.47L95.95 6.47L95.95 10.90L95.95 10.90Q95.95 11.46 96.20 11.76L96.20 11.76L96.20 11.76Q96.44 12.06 96.84 12.06L96.84 12.06L96.84 12.06Q97.13 12.06 97.46 11.91L97.46 11.91L97.46 12.62L97.46 12.62Q97.35 12.67 97.13 12.70L97.13 12.70L97.13 12.70Q96.90 12.74 96.62 12.74L96.62 12.74ZM99.32 12.61L99.32 5.78L100.19 5.78L100.19 7.01L100.19 7.01Q100.46 6.38 101.02 6.01L101.02 6.01L101.02 6.01Q101.58 5.63 102.25 5.63L102.25 5.63L102.25 5.63Q102.84 5.63 103.31 5.95L103.31 5.95L102.96 6.71L102.96 6.71Q102.66 6.45 102.11 6.45L102.11 6.45L102.11 6.45Q101.17 6.45 100.67 7.14L100.67 7.14L100.67 7.14Q100.17 7.83 100.17 9.06L100.17 9.06L100.17 12.61L99.32 12.61ZM107.33 12.74L107.33 12.74Q106.42 12.74 105.70 12.26L105.70 12.26L105.70 12.26Q104.98 11.78 104.58 10.96L104.58 10.96L104.58 10.96Q104.18 10.14 104.18 9.17L104.18 9.17L104.18 9.17Q104.18 8.20 104.58 7.39L104.58 7.39L104.58 7.39Q104.98 6.58 105.70 6.11L105.70 6.11L105.70 6.11Q106.42 5.63 107.33 5.63L107.33 5.63L107.33 5.63Q108.25 5.63 108.98 6.11L108.98 6.11L108.98 6.11Q109.70 6.58 110.11 7.40L110.11 7.40L110.11 7.40Q110.52 8.21 110.52 9.17L110.52 9.17L110.52 9.17Q110.52 10.14 110.11 10.96L110.11 10.96L110.11 10.96Q109.70 11.78 108.98 12.26L108.98 12.26L108.98 12.26Q108.25 12.74 107.33 12.74L107.33 12.74ZM107.34 12.04L107.34 12.04Q108.10 12.04 108.63 11.64L108.63 11.64L108.63 11.64Q109.16 11.23 109.41 10.58L109.41 10.58L109.41 10.58Q109.67 9.92 109.67 9.17L109.67 9.17L109.67 9.17Q109.67 8.43 109.41 7.78L109.41 7.78L109.41 7.78Q109.16 7.13 108.64 6.73L108.64 6.73L108.64 6.73Q108.12 6.33 107.36 6.33L107.36 6.33L107.36 6.33Q106.61 6.33 106.08 6.73L106.08 6.73L106.08 6.73Q105.55 7.13 105.29 7.78L105.29 7.78L105.29 7.78Q105.03 8.43 105.03 9.17L105.03 9.17L105.03 9.17Q105.03 9.93 105.29 10.58L105.29 10.58L105.29 10.58Q105.55 11.24 106.08 11.64L106.08 11.64L106.08 11.64Q106.60 12.04 107.34 12.04L107.34 12.04ZM113.37 12.74L113.37 12.74Q112.91 12.74 112.69 12.57L112.69 12.57L112.69 12.57Q112.46 12.39 112.40 12.13L112.40 12.13L112.40 12.13Q112.34 11.87 112.34 11.46L112.34 11.46L112.34 11.22L112.34 2.95L113.21 2.95L113.21 11.64L113.21 11.64Q113.21 11.74 113.21 11.76L113.21 11.76L113.21 11.76Q113.21 11.78 113.27 11.89L113.27 11.89L113.27 11.89Q113.34 12.00 113.49 12.00L113.49 12.00L113.49 12.00Q113.86 12.00 114.20 11.94L114.20 11.94L114.20 12.61L114.20 12.61Q114.06 12.66 113.83 12.70L113.83 12.70L113.83 12.70Q113.60 12.74 113.37 12.74L113.37 12.74ZM116.81 12.74L116.81 12.74Q116.35 12.74 116.13 12.57L116.13 12.57L116.13 12.57Q115.91 12.39 115.85 12.13L115.85 12.13L115.85 12.13Q115.79 11.87 115.79 11.46L115.79 11.46L115.79 11.22L115.79 2.95L116.66 2.95L116.66 11.64L116.66 11.64Q116.66 11.74 116.66 11.76L116.66 11.76L116.66 11.76Q116.66 11.78 116.72 11.89L116.72 11.89L116.72 11.89Q116.79 12.00 116.94 12.00L116.94 12.00L116.94 12.00Q117.30 12.00 117.65 11.94L117.65 11.94L117.65 12.61L117.65 12.61Q117.50 12.66 117.27 12.70L117.27 12.70L117.27 12.70Q117.04 12.74 116.81 12.74L116.81 12.74ZM121.73 12.69L121.73 12.69Q120.76 12.69 120.08 12.22L120.08 12.22L120.08 12.22Q119.41 11.76 119.08 10.98L119.08 10.98L119.08 10.98Q118.74 10.19 118.74 9.23L118.74 9.23L118.74 9.23Q118.74 8.28 119.07 7.47L119.07 7.47L119.07 7.47Q119.40 6.67 120.05 6.18L120.05 6.18L120.05 6.18Q120.70 5.69 121.61 5.69L121.61 5.69L121.61 5.69Q122.64 5.69 123.27 6.16L123.27 6.16L123.27 6.16Q123.90 6.64 124.17 7.38L124.17 7.38L124.17 7.38Q124.44 8.13 124.44 9.00L124.44 9.00L124.44 9.00Q124.44 9.24 124.41 9.48L124.41 9.48L119.64 9.48L119.64 9.48Q119.62 10.15 119.85 10.71L119.85 10.71L119.85 10.71Q120.09 11.27 120.56 11.61L120.56 11.61L120.56 11.61Q121.04 11.95 121.71 11.95L121.71 11.95L121.71 11.95Q122.37 11.95 122.84 11.79L122.84 11.79L122.84 11.79Q123.31 11.63 123.70 11.22L123.70 11.22L124.28 11.67L124.28 11.67Q123.73 12.21 123.13 12.45L123.13 12.45L123.13 12.45Q122.53 12.69 121.73 12.69L121.73 12.69ZM119.64 8.74L123.63 8.74L123.63 8.74Q123.63 8.13 123.43 7.60L123.43 7.60L123.43 7.60Q123.24 7.07 122.79 6.73L122.79 6.73L122.79 6.73Q122.34 6.39 121.61 6.39L121.61 6.39L121.61 6.39Q120.98 6.39 120.54 6.71L120.54 6.71L120.54 6.71Q120.10 7.03 119.88 7.57L119.88 7.57L119.88 7.57Q119.66 8.10 119.64 8.74L119.64 8.74ZM126.29 12.61L126.29 5.78L127.16 5.78L127.16 7.01L127.16 7.01Q127.43 6.38 127.99 6.01L127.99 6.01L127.99 6.01Q128.55 5.63 129.21 5.63L129.21 5.63L129.21 5.63Q129.81 5.63 130.28 5.95L130.28 5.95L129.93 6.71L129.93 6.71Q129.63 6.45 129.08 6.45L129.08 6.45L129.08 6.45Q128.14 6.45 127.64 7.14L127.64 7.14L127.64 7.14Q127.14 7.83 127.14 9.06L127.14 9.06L127.14 12.61L126.29 12.61Z"></path></g><defs data-v-423bf9ae=""><linearGradient data-v-423bf9ae="" gradientTransform="rotate(25)" id="678c0467-1dc2-4869-b886-213d2e71aa56" x1="0%" y1="0%" x2="100%" y2="0%"><stop data-v-423bf9ae="" offset="0%" style="stop-color: rgb(47, 134, 50); stop-opacity: 1;"></stop><stop data-v-423bf9ae="" offset="100%" style="stop-color: rgb(118, 230, 7); stop-opacity: 1;"></stop></linearGradient></defs><g data-v-423bf9ae="" id="a3bd9c1a-7553-42d9-893f-989d501aaf1e" transform="matrix(1.1639185716391542,0,0,1.1639185716391542,-17.005911898932936,-12.916535847060636)" stroke="none" fill="url(#678c0467-1dc2-4869-b886-213d2e71aa56)"><path d="M61.64 58.881c-7.924 9.351-16.084 9.953-16.044 10.52-2.867-21.792 10.982-37.815 10.982-37.815a48.485 48.485 0 0 0-7.229 9.104l.224-.371c-3.369-2.856-5.174-11.592-5.174-11.592.793 10.315 3.651 14.212 3.651 14.212.256-.487.697-1.241 1.041-1.817-2.927 4.887-4.749 9.935-5.813 14.842l.075-.386c-1.904-5.694-8.476-10.188-8.476-10.188 5.237 5.395 7.674 14.616 7.674 14.616.026-.203.082-.541.15-.936-2.529 16.138 2.583 29.947 2.583 29.947h7.432c-3.517-5.776-5.59-11.39-6.639-16.701.099.438.17.688.17.688 8.251-3.809 15.393-14.123 15.393-14.123z"></path><path d="M51.316 59.684s-3.159-22.583 36.616-22.119c0 0-4.555 34.476-28.624 31.875 0 0 8.829-7.395 8.829-15.872.001 0-6.787-2.617-16.821 6.116zM34.543 51.682S16.482 55.426 14.752 23.3c0 0 28.069 1.85 27.243 21.414 0 0-6.435-6.733-13.277-6.285.001 0-1.753 5.618 5.825 13.253zM51.258 31.022S48.15 17.144 72.903 15.416c0 0-1.084 21.666-16.18 21.27 0 0 5.112-5.046 4.684-10.315-.001-.001-4.354-1.285-10.149 4.651z"></path><path d="M41.5 31.083s-9.766-3.453-1.254-19.391c0 0 12.947 9.051 6.862 18.211 0 0-1.134-5.105-4.552-6.881 0 0-2.476 2.19-1.056 8.061z"></path></g><!----></svg>