<svg data-v-423bf9ae="" xmlns="http://www.w3.org/2000/svg" viewBox="0 0 56.78371353849803 60" class="icon"><!----><!----><!----><!----><g data-v-423bf9ae="" id="82f5bc54-9319-4a11-88d1-8cd99f468867" transform="matrix(0.7759457144261027,0,0,0.7759457144261027,-11.446751642440475,-9.07235685499029)" stroke="none" fill="white"><path d="M61.64 58.881c-7.924 9.351-16.084 9.953-16.044 10.52-2.867-21.792 10.982-37.815 10.982-37.815a48.485 48.485 0 0 0-7.229 9.104l.224-.371c-3.369-2.856-5.174-11.592-5.174-11.592.793 10.315 3.651 14.212 3.651 14.212.256-.487.697-1.241 1.041-1.817-2.927 4.887-4.749 9.935-5.813 14.842l.075-.386c-1.904-5.694-8.476-10.188-8.476-10.188 5.237 5.395 7.674 14.616 7.674 14.616.026-.203.082-.541.15-.936-2.529 16.138 2.583 29.947 2.583 29.947h7.432c-3.517-5.776-5.59-11.39-6.639-16.701.099.438.17.688.17.688 8.251-3.809 15.393-14.123 15.393-14.123z"></path><path d="M51.316 59.684s-3.159-22.583 36.616-22.119c0 0-4.555 34.476-28.624 31.875 0 0 8.829-7.395 8.829-15.872.001 0-6.787-2.617-16.821 6.116zM34.543 51.682S16.482 55.426 14.752 23.3c0 0 28.069 1.85 27.243 21.414 0 0-6.435-6.733-13.277-6.285.001 0-1.753 5.618 5.825 13.253zM51.258 31.022S48.15 17.144 72.903 15.416c0 0-1.084 21.666-16.18 21.27 0 0 5.112-5.046 4.684-10.315-.001-.001-4.354-1.285-10.149 4.651z"></path><path d="M41.5 31.083s-9.766-3.453-1.254-19.391c0 0 12.947 9.051 6.862 18.211 0 0-1.134-5.105-4.552-6.881 0 0-2.476 2.19-1.056 8.061z"></path></g><!----></svg>